<svg width="160" height="217" viewBox="0 0 160 217" fill="none" xmlns="http://www.w3.org/2000/svg">
    <path d="M121.955 11.8591L124.395 13.7395L120.768 26.188L131.855 19.4912L134.275 21.3572L119.526 30.1315L117.304 28.4194L121.955 11.8615V11.8591Z" fill="white"/>
    <path d="M125.486 34.9799C125.196 33.946 125.205 32.9408 125.51 31.9622C125.815 30.9835 126.419 30.0962 127.318 29.3027C128.196 28.5284 129.137 28.0499 130.139 27.8648C131.142 27.682 132.142 27.7974 133.145 28.2134C134.145 28.6294 135.068 29.3171 135.91 30.2766C136.752 31.2384 137.314 32.2387 137.589 33.2823C137.868 34.3259 137.853 35.3358 137.549 36.3145C137.244 37.2931 136.652 38.1684 135.774 38.9427C134.872 39.7362 133.917 40.2243 132.912 40.3999C131.905 40.5778 130.909 40.4576 129.923 40.0368C128.938 39.616 128.024 38.9258 127.182 37.9664C126.34 37.007 125.774 36.0091 125.484 34.9751L125.486 34.9799ZM131.276 37.7091C132.183 37.7404 133.032 37.4086 133.819 36.716C134.651 35.9826 135.102 35.1747 135.169 34.2946C135.236 33.4145 134.92 32.5729 134.217 31.7722C133.514 30.9715 132.723 30.5483 131.845 30.5026C130.964 30.4569 130.108 30.8008 129.276 31.5342C128.489 32.2267 128.052 33.0274 127.966 33.9339C127.882 34.8405 128.184 35.6869 128.878 36.478C129.571 37.2667 130.37 37.6779 131.276 37.7091Z" fill="white"/>
    <path d="M133.903 44.0511C134.203 42.5146 135.143 41.2931 136.728 40.3913C138.288 39.5041 139.78 39.2564 141.209 39.6507C142.639 40.0451 143.833 41.0887 144.795 42.7839C145.426 43.8948 145.752 44.9673 145.776 45.994C145.8 47.0232 145.558 47.9441 145.052 48.7593C144.543 49.5744 143.821 50.2501 142.883 50.784L141.734 51.438L137.129 43.3153C135.812 44.2916 135.805 45.9267 137.105 48.2159C137.45 48.8242 137.856 49.4181 138.321 49.9928C138.786 50.5675 139.247 51.0412 139.703 51.4116L137.781 52.5056C137.34 52.1618 136.86 51.6688 136.34 51.0268C135.819 50.3872 135.361 49.7139 134.963 49.0142C133.958 47.2396 133.603 45.5852 133.903 44.0487V44.0511ZM142.099 48.1028C142.838 47.6484 143.265 47.0472 143.387 46.3042C143.507 45.5612 143.315 44.746 142.814 43.8588C142.317 42.9859 141.715 42.416 141.008 42.1539C140.3 41.8918 139.576 41.9543 138.834 42.3415L142.101 48.1004L142.099 48.1028Z" fill="white"/>
    <path d="M148.52 51.0094L149.477 53.6256L147.829 54.2315C148.537 54.4407 149.166 54.8808 149.717 55.5444C150.267 56.2105 150.725 57.0353 151.084 58.0236L149.031 58.7786C148.65 57.735 148.158 56.8886 147.558 56.2418C146.959 55.5949 146.261 55.2463 145.467 55.1982L139.24 57.4849L138.252 54.7822L148.523 51.0094H148.52Z" fill="white"/>
    <path d="M141.998 61.7905L142.797 64.6736L137.719 63.7647L137.016 61.2327L141.996 61.7905H141.998Z" fill="white"/>
    <path d="M159.036 73.1476L159.098 76.0476L145.565 76.3457L145.733 84.0188L143.341 84.0717L143.109 73.4987L159.033 73.1476H159.036Z" fill="white"/>
    <path d="M144.316 85.389C145.5 84.3694 146.995 83.9967 148.796 84.2708C150.569 84.5426 151.893 85.276 152.773 86.4734C153.653 87.6709 153.944 89.2315 153.651 91.16C153.459 92.4248 153.054 93.4684 152.437 94.2907C151.821 95.1131 151.061 95.6854 150.159 96.01C149.257 96.3346 148.273 96.414 147.206 96.2529L145.899 96.0533L147.302 86.8173C145.666 86.7668 144.649 88.0436 144.253 90.6502C144.148 91.3427 144.1 92.0593 144.112 92.7999C144.121 93.5405 144.191 94.1994 144.318 94.7717L142.133 94.4374C142.001 93.894 141.929 93.2087 141.915 92.3815C141.903 91.5543 141.955 90.744 142.078 89.9457C142.385 87.9282 143.131 86.4085 144.316 85.389ZM148.245 93.6607C149.106 93.7617 149.813 93.5573 150.365 93.05C150.919 92.5402 151.272 91.7828 151.425 90.7752C151.576 89.7821 151.454 88.9622 151.061 88.3153C150.667 87.6685 150.06 87.2694 149.238 87.1131L148.242 93.6631L148.245 93.6607Z" fill="white"/>
    <path d="M141.941 98.0873C143.303 97.3226 144.843 97.2553 146.553 97.8853C148.235 98.5033 149.389 99.4892 150.012 100.836C150.636 102.185 150.612 103.774 149.943 105.604C149.504 106.804 148.899 107.747 148.132 108.429C147.364 109.112 146.505 109.524 145.558 109.661C144.61 109.798 143.629 109.68 142.617 109.309L141.377 108.853L144.586 100.081C142.991 99.7056 141.742 100.754 140.837 103.228C140.598 103.885 140.408 104.58 140.271 105.308C140.135 106.037 140.072 106.693 140.082 107.282L138.007 106.52C137.985 105.96 138.05 105.275 138.201 104.462C138.352 103.649 138.568 102.865 138.844 102.108C139.545 100.191 140.578 98.852 141.941 98.0897V98.0873ZM144.148 106.977C144.97 107.246 145.704 107.189 146.347 106.802C146.99 106.414 147.486 105.741 147.839 104.784C148.184 103.841 148.228 103.012 147.971 102.303C147.714 101.591 147.199 101.076 146.424 100.761L144.148 106.979V106.977Z" fill="white"/>
    <path d="M146.081 113.773L144.706 116.194L143.181 115.324C143.478 116.002 143.55 116.766 143.399 117.618C143.248 118.469 142.912 119.351 142.394 120.265L140.492 119.181C141.041 118.214 141.367 117.293 141.473 116.415C141.578 115.538 141.394 114.78 140.916 114.141L135.155 110.851L136.575 108.35L146.081 113.775V113.773Z" fill="white"/>
    <path d="M127.997 123.133C129.556 123.032 130.974 123.636 132.247 124.941C133.5 126.225 134.118 127.611 134.104 129.097C134.087 130.583 133.384 132.006 131.996 133.369C131.084 134.264 130.134 134.853 129.148 135.139C128.163 135.423 127.213 135.425 126.296 135.139C125.38 134.856 124.545 134.327 123.792 133.552L122.869 132.605L129.532 126.072C128.254 125.045 126.675 125.454 124.797 127.296C124.298 127.786 123.831 128.329 123.394 128.928C122.957 129.527 122.619 130.094 122.377 130.628L120.832 129.044C121.053 128.529 121.406 127.938 121.89 127.271C122.375 126.603 122.907 125.987 123.483 125.422C124.939 123.994 126.445 123.232 128.004 123.131L127.997 123.133ZM126.174 132.109C126.802 132.708 127.489 132.973 128.237 132.901C128.985 132.828 129.722 132.434 130.448 131.722C131.166 131.02 131.559 130.292 131.633 129.539C131.705 128.786 131.461 128.099 130.899 127.478L126.174 132.109Z" fill="white"/>
    <path d="M124.9 139.332L122.569 140.849L121.763 139.603C121.669 140.409 121.403 141.13 120.964 141.77C120.527 142.41 119.976 142.943 119.314 143.374C118.078 144.177 116.937 144.444 115.891 144.172C114.845 143.9 113.962 143.208 113.243 142.097L109.484 136.292L111.892 134.724L115.502 140.301C116.371 141.642 117.428 141.907 118.678 141.094C119.225 140.738 119.657 140.272 119.971 139.695C120.285 139.118 120.439 138.459 120.432 137.721L116.536 131.704L118.944 130.137L124.9 139.334V139.332Z" fill="white"/>
    <path d="M105.498 155.339L98.17 157.226C96.7572 157.589 95.5675 157.519 94.5984 157.015C93.6294 156.51 92.9721 155.579 92.6243 154.22C92.4396 153.497 92.4444 152.799 92.6411 152.128C92.8378 151.458 93.1832 150.892 93.6773 150.436C91.9383 150.318 90.8302 149.337 90.3576 147.492C90.1226 146.579 90.125 145.732 90.3648 144.956C90.6047 144.179 91.0292 143.522 91.6361 142.989C92.2454 142.455 92.9745 142.077 93.8285 141.858L101.53 139.875L105.495 155.339H105.498ZM95.0374 143.905C94.2578 144.104 93.6989 144.422 93.3631 144.855C93.0273 145.287 92.9649 145.917 93.176 146.742C93.3871 147.567 93.7613 148.108 94.2986 148.363C94.8335 148.618 95.5219 148.637 96.3614 148.421L100.489 147.358L99.3213 142.801L95.0398 143.905H95.0374ZM96.9611 150.674C96.3278 150.837 95.8649 151.14 95.5723 151.585C95.2796 152.03 95.2221 152.607 95.4044 153.314C95.613 154.124 95.9441 154.634 96.395 154.838C96.8483 155.043 97.4432 155.052 98.1772 154.862L102.149 153.838L101.065 149.613L96.9611 150.671V150.674Z" fill="white"/>
    <path d="M86.8844 144.34C88.1125 145.307 88.7674 146.704 88.8489 148.529C88.9281 150.323 88.4675 151.77 87.4673 152.867C86.4671 153.963 84.9943 154.555 83.0514 154.639C81.7777 154.694 80.6767 154.5 79.7533 154.052C78.8298 153.605 78.1198 152.97 77.6281 152.146C77.1364 151.321 76.8653 150.369 76.8173 149.289L76.7598 147.966L86.0713 147.555C85.8026 145.937 84.3563 145.184 81.7298 145.3C81.0317 145.331 80.3217 145.422 79.5974 145.576C78.8754 145.73 78.2445 145.925 77.7072 146.163L77.6089 143.948C78.115 143.713 78.7722 143.508 79.5782 143.335C80.3841 143.162 81.1901 143.059 81.9936 143.023C84.0276 142.934 85.6587 143.371 86.8868 144.338L86.8844 144.34ZM79.5542 149.808C79.6237 150.674 79.9595 151.33 80.564 151.775C81.1685 152.22 81.9792 152.422 82.9962 152.376C83.9989 152.333 84.776 152.054 85.3325 151.542C85.889 151.03 86.1624 150.354 86.1552 149.517L79.5542 149.808Z" fill="white"/>
    <path d="M73.7278 160.075L70.8687 159.811L72.4134 143L75.2726 143.265L73.7278 160.075Z" fill="white"/>
    <path d="M69.0744 143.857C69.9955 145.122 70.2497 146.644 69.8348 148.423C69.427 150.174 68.5923 151.439 67.333 152.222C66.0737 153.006 64.4978 153.175 62.6029 152.732C61.3604 152.441 60.3553 151.953 59.5854 151.273C58.8154 150.592 58.3069 149.787 58.055 148.861C57.8032 147.935 57.8008 146.944 58.0454 145.891L58.3477 144.6L67.4217 146.73C67.6016 145.098 66.4095 143.982 63.8502 143.381C63.1689 143.222 62.4613 143.116 61.7226 143.068C60.9838 143.02 60.3265 143.037 59.7437 143.121L60.2474 140.964C60.7991 140.875 61.4851 140.856 62.3078 140.909C63.1306 140.962 63.9341 141.08 64.7185 141.262C66.6997 141.726 68.1533 142.592 69.0744 143.857ZM60.54 147.132C60.3721 147.983 60.5208 148.707 60.9814 149.301C61.4443 149.895 62.1711 150.306 63.1617 150.539C64.138 150.768 64.9631 150.712 65.6347 150.368C66.3088 150.025 66.7549 149.45 66.9732 148.642L60.54 147.132Z" fill="white"/>
    <path d="M56.6378 140.484C57.2902 141.907 57.235 143.449 56.4747 145.11C55.7263 146.743 54.6565 147.818 53.2677 148.335C51.8789 148.852 50.2982 148.703 48.5328 147.89C47.3742 147.356 46.4843 146.678 45.8655 145.858C45.2466 145.036 44.906 144.146 44.8436 143.189C44.7813 142.229 44.9756 141.26 45.4241 140.277L45.9758 139.072L54.4454 142.972C54.9443 141.409 53.9993 140.077 51.6102 138.978C50.9746 138.685 50.3006 138.442 49.5882 138.247C48.8758 138.053 48.2257 137.937 47.6405 137.904L48.5639 135.891C49.1228 135.913 49.7992 136.033 50.5956 136.247C51.3919 136.463 52.1547 136.737 52.8863 137.076C54.7356 137.928 55.9877 139.065 56.6402 140.488L56.6378 140.484ZM47.6213 141.989C47.2879 142.79 47.2879 143.528 47.6213 144.201C47.9571 144.874 48.5855 145.425 49.5114 145.851C50.4229 146.269 51.2408 146.38 51.97 146.178C52.6968 145.976 53.2485 145.502 53.6251 144.754L47.6189 141.989H47.6213Z" fill="white"/>
    <path d="M41.4037 141.182L42.7493 142.082L41.5356 143.907L40.19 143.005L39.1394 144.582C38.3982 145.696 37.5011 146.328 36.4529 146.48C35.4047 146.629 34.3421 146.345 33.2675 145.626C32.6606 145.22 32.1881 144.777 31.8523 144.294L33.1428 142.356C33.3826 142.736 33.704 143.06 34.1094 143.332C34.6779 143.712 35.1816 143.866 35.623 143.796C36.0643 143.724 36.4769 143.397 36.8655 142.815L37.8009 141.408L35.5822 139.925L36.7959 138.1L39.0122 139.583L43.8695 132.288L46.2585 133.887L41.4013 141.182H41.4037Z" fill="white"/>
    <path d="M22.4766 136.508L20.6033 134.327L26.1297 129.559C24.5802 129.53 23.2706 128.89 22.2008 127.645C21.2389 126.524 20.8239 125.428 20.9511 124.353C21.0806 123.278 21.6443 122.307 22.6469 121.443L27.8808 116.927L29.7541 119.108L24.7289 123.444C23.52 124.487 23.4001 125.574 24.3715 126.705C24.7985 127.2 25.3166 127.565 25.9307 127.801C26.5423 128.037 27.2139 128.099 27.9431 127.993L33.3664 123.314L35.2398 125.495L22.4766 136.508Z" fill="white"/>
    <path d="M25.3879 115.173C25.0808 116.707 24.1334 117.924 22.5431 118.818C20.9792 119.698 19.4848 119.936 18.0576 119.535C16.6304 119.133 15.4407 118.082 14.4884 116.382C13.8624 115.267 13.541 114.194 13.5218 113.165C13.5026 112.136 13.7497 111.215 14.2606 110.405C14.7715 109.592 15.4983 108.921 16.4385 108.392L17.5899 107.743L22.1545 115.889C23.4762 114.918 23.4929 113.285 22.2049 110.989C21.8619 110.378 21.4613 109.784 20.996 109.207C20.533 108.63 20.0749 108.154 19.6215 107.781L21.5476 106.697C21.9866 107.043 22.4639 107.538 22.982 108.183C23.5001 108.827 23.9559 109.5 24.3493 110.203C25.3471 111.982 25.6901 113.639 25.3831 115.175L25.3879 115.173ZM17.2133 111.078C16.4745 111.53 16.0404 112.126 15.9156 112.869C15.7909 113.612 15.978 114.427 16.4769 115.317C16.9686 116.192 17.5659 116.765 18.2735 117.032C18.9811 117.298 19.7055 117.238 20.4491 116.856L17.2133 111.08V111.078Z" fill="white"/>
    <path d="M19.9144 103.065C19.4994 103.88 18.7223 104.498 17.5781 104.914L12.6321 106.72L13.1934 108.266L11.1378 109.016L10.5765 107.47L7.49423 108.596L6.51318 105.89L9.59544 104.765L8.69835 102.296L10.754 101.545L11.6511 104.015L16.2541 102.334C16.9113 102.094 17.3335 101.803 17.523 101.456C17.7124 101.113 17.6909 100.617 17.4582 99.9728C17.2975 99.5303 17.0384 99.1288 16.6834 98.7729L18.7391 98.0226C19.2044 98.5492 19.6002 99.2562 19.9216 100.143C20.3318 101.274 20.3294 102.247 19.9144 103.063V103.065Z" fill="white"/>
    <path d="M15.8368 86.4184C15.2323 87.7481 14.3233 88.8037 13.1095 89.5852C11.8958 90.3667 10.4566 90.8043 8.78719 90.8957C7.11774 90.9871 5.64017 90.7082 4.3497 90.0613C3.05923 89.4145 2.03741 88.4623 1.28664 87.2071C0.533465 85.9519 0.113703 84.4875 0.0225542 82.8139C-0.0398105 81.6741 0.0273514 80.6474 0.221641 79.7384C0.415931 78.8271 0.758937 77.9927 1.25066 77.2353L4.0043 77.0862C3.46461 77.7859 3.08802 78.577 2.87694 79.4571C2.66586 80.3372 2.5891 81.3255 2.64907 82.422C2.70903 83.516 2.99207 84.4971 3.50298 85.3604C4.01389 86.2236 4.7119 86.8921 5.597 87.3634C6.4821 87.8347 7.49432 88.0391 8.63128 87.9765C9.78503 87.914 10.7757 87.6159 11.6056 87.0844C12.4355 86.5506 13.0592 85.8389 13.4765 84.9468C13.8939 84.0547 14.0714 83.0544 14.0114 81.9434C13.9491 80.7724 13.6996 79.8178 13.2631 79.0796L9.69148 79.272L9.8378 81.9627L7.5399 82.0877L7.23767 76.4995L14.6543 76.0979C15.8224 77.4541 16.4748 79.3922 16.6116 81.917C16.7027 83.5906 16.4437 85.0911 15.8392 86.4208L15.8368 86.4184Z" fill="white"/>
    <path d="M15.2179 73.4954C14.0233 74.5054 12.5266 74.8636 10.7276 74.5703C8.95741 74.2817 7.64056 73.5363 6.77225 72.3292C5.90394 71.1221 5.6281 69.5591 5.93992 67.6355C6.14381 66.373 6.55877 65.3343 7.18242 64.5167C7.80606 63.7016 8.57123 63.1341 9.47792 62.8191C10.3822 62.5041 11.368 62.4319 12.433 62.6051L13.7379 62.8167L12.246 72.0382C13.8818 72.1032 14.9108 70.836 15.3306 68.2366C15.4433 67.5441 15.4961 66.8299 15.4937 66.0869C15.4913 65.3463 15.4289 64.6874 15.3066 64.1127L17.4894 64.4686C17.6165 65.0145 17.6837 65.6998 17.6885 66.5269C17.6933 67.3541 17.6309 68.1645 17.5014 68.9604C17.1752 70.9754 16.4148 72.4855 15.2203 73.4954H15.2179ZM11.368 65.1852C10.5093 65.077 9.79934 65.2742 9.24045 65.7767C8.68157 66.2793 8.32177 67.0343 8.15866 68.0418C7.99796 69.0349 8.11069 69.8549 8.49927 70.5041C8.88785 71.1534 9.48991 71.5597 10.3102 71.7232L11.368 65.1852Z" fill="white"/>
    <path d="M6.06432 57.9203C5.68054 58.1271 5.27277 58.1632 4.83622 58.0285C4.40206 57.8914 4.08064 57.6293 3.87676 57.2374C3.67287 56.8478 3.6369 56.4319 3.77362 55.9966C3.91034 55.5614 4.17419 55.2368 4.56517 55.0228C4.95855 54.8112 5.37111 54.7727 5.80527 54.9073C6.23942 55.0444 6.55604 55.3089 6.75033 55.7057C6.94462 56.1024 6.9758 56.5184 6.83908 56.9536C6.70236 57.3889 6.44331 57.7111 6.06192 57.9179L6.06432 57.9203ZM8.23509 58.923L9.1034 56.1313L19.5447 59.3967L18.6764 62.1884L8.23509 58.923Z" fill="white"/>
    <path d="M20.2333 55.6347C19.3721 55.9449 18.3839 55.8559 17.2685 55.375L12.4329 53.2902L11.7852 54.8003L9.77517 53.9346L10.4228 52.4245L7.40771 51.1237L8.54227 48.4786L11.5574 49.7795L12.5936 47.3653L14.6036 48.2309L13.5674 50.6451L18.0673 52.5856C18.7101 52.8622 19.2162 52.9415 19.5904 52.8213C19.9646 52.7011 20.286 52.326 20.5571 51.696C20.7442 51.2631 20.8281 50.7942 20.8137 50.2893L22.8238 51.1549C22.8022 51.8595 22.6055 52.6434 22.2337 53.5114C21.7588 54.6175 21.092 55.3245 20.2309 55.6323L20.2333 55.6347Z" fill="white"/>
    <path d="M22.9097 48.4774C21.4153 48.9294 19.897 48.6625 18.3618 47.6791C16.8507 46.7124 15.9368 45.5029 15.6178 44.0505C15.2988 42.5982 15.6634 41.052 16.7092 39.4097C17.3976 38.3324 18.1891 37.5413 19.0838 37.0412C19.9809 36.541 20.9068 36.3246 21.8615 36.3943C22.8161 36.4641 23.7492 36.7911 24.6583 37.373L25.7712 38.0872L20.7533 45.9598C22.2284 46.6715 23.6748 45.9165 25.09 43.6947C25.4666 43.1055 25.8 42.4683 26.0903 41.7878C26.3805 41.1073 26.5844 40.4773 26.6995 39.9002L28.5633 41.0929C28.4649 41.6435 28.2538 42.3 27.9324 43.0598C27.611 43.8197 27.232 44.5411 26.7979 45.2216C25.7017 46.9408 24.4064 48.0277 22.9097 48.4774ZM22.6626 39.3183C21.9166 38.8759 21.1874 38.7773 20.475 39.0153C19.7626 39.2558 19.1342 39.8064 18.5849 40.6649C18.0452 41.5113 17.8245 42.3096 17.9229 43.0598C18.0212 43.8101 18.4146 44.4232 19.103 44.8994L22.6602 39.3159L22.6626 39.3183Z" fill="white"/>
    <path d="M22.282 31.9924L24.2129 29.987L25.2779 31.0186C25.1891 30.213 25.2851 29.4484 25.5657 28.727C25.8488 28.0056 26.2637 27.3612 26.813 26.7889C27.8348 25.7261 28.8878 25.2091 29.9672 25.238C31.0466 25.2668 32.0636 25.7405 33.0159 26.6615L37.9859 31.4658L35.9926 33.5386L31.2193 28.9242C30.0704 27.8133 28.9814 27.7964 27.9476 28.8713C27.4942 29.3426 27.18 29.8956 27.0025 30.528C26.825 31.1605 26.825 31.8385 27.0001 32.5551L32.15 37.535L30.1567 39.6078L22.282 31.9972V31.9924Z" fill="white"/>
    <path d="M32.8786 21.4486L35.1789 19.8856L35.9201 20.9821C36.0952 20.1838 36.395 19.472 36.8196 18.8516C37.2441 18.2312 37.827 17.6686 38.5706 17.166C39.4893 16.5432 40.4439 16.1825 41.4346 16.0887C42.4252 15.995 43.3703 16.1705 44.2698 16.6178C45.1693 17.065 45.9416 17.7671 46.5893 18.7266C47.2297 19.6716 47.5919 20.6502 47.6758 21.6578C47.7622 22.6677 47.5823 23.6223 47.1361 24.5216C46.69 25.4233 46.0088 26.1856 45.0901 26.8084C44.3993 27.2773 43.6821 27.6235 42.9409 27.8424C42.1997 28.0612 41.4825 28.1213 40.7893 28.0203L44.1906 33.0507L41.8136 34.6666L32.8762 21.451L32.8786 21.4486ZM44.7903 23.0669C44.9678 22.1363 44.7639 21.237 44.1762 20.3665C43.5886 19.496 42.833 18.9791 41.9143 18.8131C40.9956 18.6472 40.1057 18.854 39.2518 19.4359C38.573 19.8976 38.0933 20.4915 37.8126 21.2153C37.532 21.9391 37.4936 22.6845 37.6975 23.4468L38.9376 25.2815C39.5564 25.7624 40.2592 26.0077 41.046 26.0149C41.8327 26.0245 42.5643 25.7961 43.2431 25.3368C44.0971 24.7549 44.6152 23.9998 44.7927 23.0693L44.7903 23.0669Z" fill="white"/>
    <path d="M43.6638 7.76904L46.252 6.52106L53.551 21.7349L50.9629 22.9828L43.6638 7.76904Z" fill="white"/>
    <path d="M55.9658 19.2852C54.5266 18.6744 53.5311 17.501 52.9746 15.7601C52.4278 14.048 52.4949 12.5331 53.1737 11.2106C53.8525 9.8905 55.119 8.93347 56.9708 8.33954C58.1869 7.95 59.2975 7.84901 60.3073 8.03656C61.3171 8.22412 62.1662 8.65214 62.857 9.31821C63.5479 9.98428 64.0588 10.8331 64.3874 11.8623L64.7904 13.1247L55.913 15.9717C56.5966 17.4649 58.1893 17.8088 60.6935 17.0057C61.3579 16.7917 62.0199 16.5175 62.6772 16.1785C63.3344 15.8394 63.8909 15.486 64.3466 15.1157L65.0206 17.2269C64.5937 17.5876 64.0132 17.9579 63.2816 18.3354C62.55 18.7153 61.7993 19.0255 61.0317 19.2732C59.0936 19.896 57.4049 19.9008 55.9658 19.29V19.2852ZM61.6098 12.0787C61.3171 11.2611 60.8206 10.7177 60.1202 10.446C59.4198 10.1742 58.5851 10.1959 57.616 10.5061C56.6614 10.8115 55.9825 11.2852 55.582 11.9272C55.179 12.5692 55.0926 13.2906 55.3181 14.0985L61.6122 12.0811L61.6098 12.0787Z" fill="white"/>
    <path d="M66.5775 15.4497L71.4539 7.79589L65.8483 8.51726L65.5701 6.34352L74.7449 5.16046L74.9751 6.94947L70.1203 14.5985L76.0425 13.8362L76.3208 16.0124L66.8054 17.2387L66.5751 15.4497H66.5775Z" fill="white"/>
    <path d="M77.9301 2.78494C77.6135 2.48437 77.4528 2.10685 77.4456 1.64998C77.4384 1.1931 77.5871 0.805966 77.8941 0.488561C78.2011 0.171156 78.5825 0.0100491 79.0383 0.0004308C79.494 -0.00918754 79.885 0.142301 80.2088 0.450088C80.5326 0.757875 80.6981 1.1378 80.7053 1.59467C80.7125 2.05154 80.559 2.43387 80.2448 2.74406C79.9306 3.05425 79.5468 3.21296 79.091 3.22017C78.6353 3.22738 78.2491 3.0807 77.9325 2.78253L77.9301 2.78494ZM77.6614 5.16548L80.5782 5.11739L80.7557 16.0799L77.8389 16.128L77.6614 5.16548Z" fill="white"/>
    <path d="M84.179 14.9279C83.1404 13.7593 82.7398 12.2684 82.9821 10.4578C83.2195 8.67598 83.9271 7.33422 85.1049 6.43251C86.2826 5.53079 87.8345 5.20857 89.763 5.46586C91.0271 5.63659 92.0753 6.02132 92.9077 6.62487C93.74 7.22842 94.3253 7.97865 94.6659 8.87797C95.0065 9.77728 95.1048 10.7608 94.9609 11.8332L94.7858 13.1461L85.5486 11.9077C85.5294 13.5501 86.8223 14.5456 89.4272 14.8942C90.1204 14.988 90.8352 15.0217 91.574 14.9976C92.3128 14.9736 92.9676 14.8918 93.5385 14.7548L93.2459 16.9502C92.7062 17.092 92.0226 17.1786 91.1998 17.205C90.3771 17.2339 89.564 17.193 88.7676 17.0872C86.7503 16.8179 85.22 16.0965 84.1814 14.9279H84.179ZM92.3584 10.8377C92.4423 9.97446 92.2264 9.26751 91.7083 8.72167C91.1902 8.17583 90.4275 7.83678 89.42 7.69972C88.427 7.56747 87.6115 7.70213 86.9734 8.1085C86.3354 8.51487 85.9468 9.13045 85.8077 9.95763L92.3584 10.8353V10.8377Z" fill="white"/>
    <path d="M98.5512 7.4715L101.209 8.29146L100.693 9.97226C101.288 9.53463 102.017 9.29658 102.878 9.26051C103.74 9.22444 104.673 9.3591 105.673 9.66929L105.03 11.7661C103.97 11.4391 103.001 11.3188 102.125 11.4054C101.247 11.492 100.549 11.8382 100.029 12.4442L98.0763 18.7971L95.3323 17.9507L98.5512 7.4715Z" fill="white"/>
    <path d="M79.5209 85.7106C80.2578 88.0459 80.0852 90.343 79.6057 92.6401C79.5096 93.1026 79.3794 93.5567 78.9522 93.8764C78.8122 93.981 78.7486 94.2738 78.7599 94.4747C78.7811 94.8368 78.8886 95.1918 78.9551 95.5511C79.0555 96.1027 78.948 96.2385 78.3766 96.2456C78.0739 96.2498 77.7726 96.2244 77.4699 96.206C77.0724 96.182 76.6764 96.1409 76.2803 96.1282C75.7994 96.1126 75.6693 95.9811 75.9097 95.561C76.1827 95.0857 76.5165 94.6204 76.9154 94.2512C77.2874 93.9089 77.5236 93.5369 77.5151 93.0616C77.4883 91.5213 77.419 89.9809 77.3765 88.4405C77.3511 87.4971 77.0356 86.7036 76.3793 85.9992C75.9847 85.5762 75.7202 85.026 75.426 84.5182C75.2506 84.2169 75.0398 84.1137 74.6876 84.1363C73.2109 84.2282 71.7314 84.3046 70.2532 84.3499C69.9067 84.3612 71.2278 83.7091 71.0892 84.0189C70.9732 84.2777 70.8318 84.5366 70.7723 84.8096C70.3607 86.6951 70.1273 88.6032 70.1019 90.534C70.0849 91.79 70.0283 93.0517 70.1104 94.3021C70.1486 94.8722 70.1231 95.4068 70.0156 95.9542C69.9378 96.3588 69.2942 96.9783 68.8671 96.8765C68.331 96.7477 67.8345 96.4422 67.3338 96.1876C67.2843 96.1621 67.28 95.9457 67.3253 95.8538C67.4087 95.6869 67.5346 95.5355 67.6619 95.3955C68.7313 94.2187 68.9632 92.4972 68.314 91.0616C68.1329 90.6598 68.1018 90.1719 68.0792 89.7192C68.0042 88.2567 67.9745 86.7913 67.9038 85.3287C67.8953 85.1533 66.1018 85.5536 66.1018 85.5536C65.9518 85.6837 65.7453 85.7856 65.6647 85.9497C65.5487 86.183 65.4794 86.4617 65.4709 86.7234C65.4483 87.4391 65.4624 88.1562 65.4709 88.8734C65.4893 90.64 65.5218 92.4053 65.5247 94.172C65.5247 94.4464 65.4285 94.7378 65.3082 94.9896C65.1258 95.37 64.8881 95.7251 64.6675 96.0858C64.4016 96.5186 63.1879 96.6643 62.8541 96.281C62.7509 96.1621 62.7466 95.9372 62.7381 95.759C62.7339 95.6826 62.8159 95.5709 62.8909 95.5271C64.0069 94.8679 63.9051 93.8325 63.7382 92.7844C63.6802 92.4237 63.6335 92.0474 63.4864 91.7193C63.0493 90.7433 63.0026 89.7433 63.0621 88.6881C63.1158 87.7446 63.0097 86.7842 62.8895 85.8421C62.8004 85.1377 62.3576 84.6328 61.7777 84.1929C60.748 83.4121 60.0605 82.3399 59.7578 81.0938C59.4834 79.9608 58.9657 79.0003 58.25 78.1007C57.837 77.583 57.5329 76.9776 57.1807 76.4104C56.9105 75.9748 56.6022 75.6891 56.0151 75.8814C55.5809 76.0229 55.2386 75.8178 55.0858 75.3651C54.9996 75.1091 54.9189 74.8503 54.8397 74.5928C54.5653 73.7046 54.2046 72.8615 53.6176 72.1274C53.4196 71.8799 53.2003 71.621 53.0971 71.3311C52.8085 70.5262 52.2187 70.2844 51.4365 70.3225C51.3417 70.3268 51.2455 70.3141 51.1508 70.3056C49.9357 70.1938 49.8551 70.1457 49.5312 68.8388C49.3813 68.2334 49.742 67.8458 50.3558 67.9788C50.94 68.1061 51.5199 68.3041 52.0645 68.5516C52.5087 68.7539 52.752 68.6139 52.9641 68.2518C53.3644 67.57 53.4521 66.8712 53.0023 66.1838C52.6303 65.6166 52.2215 65.0734 51.7491 64.4058C52.1055 64.5275 52.4167 64.56 52.6331 64.7198C53.206 65.1442 53.7393 65.6223 54.2838 66.0834C54.4041 66.1852 54.4974 66.321 54.6205 66.42C55.1707 66.8571 55.7818 66.6237 55.8949 65.9334C55.9755 65.4469 56.0024 64.949 56.1226 64.4737C56.3405 63.6123 56.943 63.1667 57.7677 63.1894C56.6941 64.5062 57.4607 65.7807 57.8822 67.0452C58.011 67.43 58.424 67.5657 58.8059 67.372C59.2416 67.1499 59.6461 66.867 60.0492 66.5869C60.2572 66.4426 60.4255 66.2432 60.6193 66.0791C60.8894 65.8528 61.1949 65.7057 61.5387 65.8868C61.8937 66.0735 61.8923 66.4257 61.8654 66.7666C61.765 68.0071 61.185 68.7355 59.987 69.1301C59.4948 69.2928 59.3547 69.6464 59.6956 70.0283C59.987 70.3551 60.3236 70.6974 60.7112 70.8728C63.1186 71.9549 65.5501 72.9888 68.14 73.5659C70.051 73.9917 71.9266 73.7555 73.8007 73.2463C75.0851 72.8969 76.3991 72.6338 77.7146 72.4245C78.6764 72.2717 79.6185 72.4867 80.4742 72.9775C80.7953 73.1614 81.0655 73.1006 81.2762 72.8304C81.5874 72.4301 81.8972 72.0256 82.1603 71.5927C82.3187 71.3339 82.4785 71.1373 82.7911 71.2151C83.1377 71.3014 83.2593 71.6026 83.1504 71.8884C82.9043 72.5334 82.6355 73.1798 82.289 73.7739C82.0853 74.1232 82.0301 74.3736 82.2381 74.7286C83.3484 76.6226 83.4276 78.6142 82.743 80.6652C82.6723 80.8759 82.5973 81.0867 82.5153 81.2932C82.1461 82.2197 82.2904 83.0698 82.8802 83.8605C83.0132 84.0387 83.1278 84.2325 83.2621 84.4093C83.8393 85.1689 84.0528 86.0274 83.7869 86.9341C83.3399 88.466 83.5054 89.9908 83.678 91.5297C83.7615 92.2723 83.7926 93.022 83.8195 93.7689C83.8308 94.073 83.8548 94.4195 83.3937 94.4917C83.3258 94.503 83.2466 94.783 83.2621 94.9301C83.3965 96.165 83.4036 96.1706 82.1617 96.1452C81.6383 96.1353 81.1093 96.1324 80.5916 96.0575C79.9848 95.9698 79.9127 95.7024 80.3158 95.2229C80.6737 94.7958 81.0527 94.3856 81.3851 93.94C81.9198 93.2229 82.1475 92.4152 82.0217 91.5128C81.9269 90.8352 81.8632 90.1521 81.7826 89.4731C81.5959 87.9059 80.7161 86.7488 79.518 85.712L79.5209 85.7106Z" fill="white"/>
    <path d="M91.4234 96.6813L91.6879 95.0547H92.4262L92.6907 90.1748H93.4305L94.381 81.6653L89.1517 87.3585L86.9338 85.1067L94.9086 76.5972V75.0951H95.4362V74.2817L86.9338 65.7723L89.0994 63.3945L97.2991 72.6791L97.9979 71.6536L98.7631 72.6551L107.107 63.3945L109.062 65.5841L100.77 74.5321V75.0951H101.298V76.4713L109.062 84.9808L107.161 87.1718L101.668 81.4149L102.777 90.1125H103.728L103.886 95.3051H104.572L104.783 96.6813H91.4234Z" fill="white"/>
    <path d="M23.7459 215.992C19.4573 215.905 16 212.089 16 207.401V200.586C16 195.844 19.5381 191.994 23.8958 191.994C28.2534 191.994 31.7915 195.844 31.7915 200.586V207.401C31.7915 212.143 28.2534 215.994 23.8958 215.994C23.8457 215.994 23.7957 215.993 23.7459 215.992Z" stroke="white" stroke-width="1.5"/>
    <path d="M23.8958 206.823C24.7367 206.823 25.4194 207.506 25.4194 208.347C25.4194 209.187 24.7367 209.87 23.8958 209.87C23.055 209.87 22.3723 209.187 22.3723 208.347C22.3723 207.506 23.055 206.823 23.8958 206.823Z" fill="white"/>
    <path d="M23.8958 206.823C24.7367 206.823 25.4194 207.506 25.4194 208.347C25.4194 209.187 24.7367 209.87 23.8958 209.87C23.055 209.87 22.3723 209.187 22.3723 208.347C22.3723 207.506 23.055 206.823 23.8958 206.823Z" stroke="white"/>
    <path d="M50.6425 209.734C49.5225 209.734 48.5092 209.494 47.6025 209.014C46.7065 208.523 45.9972 207.835 45.4745 206.95C44.9625 206.064 44.7065 205.051 44.7065 203.91C44.7065 202.768 44.9625 201.755 45.4745 200.87C45.9972 199.984 46.7065 199.296 47.6025 198.806C48.5092 198.315 49.5225 198.07 50.6425 198.07C51.7518 198.07 52.7545 198.315 53.6505 198.806C54.5572 199.296 55.2665 199.984 55.7785 200.87C56.3012 201.755 56.5625 202.768 56.5625 203.91C56.5625 205.051 56.3012 206.064 55.7785 206.95C55.2665 207.824 54.5572 208.507 53.6505 208.998C52.7545 209.488 51.7518 209.734 50.6425 209.734ZM50.6425 207.894C51.3572 207.894 52.0078 207.734 52.5945 207.414C53.1812 207.083 53.6452 206.619 53.9865 206.022C54.3385 205.414 54.5145 204.71 54.5145 203.91C54.5145 203.12 54.3438 202.427 54.0025 201.83C53.6612 201.222 53.1972 200.752 52.6105 200.422C52.0238 200.091 51.3678 199.926 50.6425 199.926C49.9172 199.926 49.2558 200.091 48.6585 200.422C48.0718 200.752 47.6078 201.222 47.2665 201.83C46.9252 202.427 46.7545 203.12 46.7545 203.91C46.7545 204.71 46.9252 205.414 47.2665 206.022C47.6185 206.619 48.0878 207.083 48.6745 207.414C49.2718 207.734 49.9278 207.894 50.6425 207.894ZM57.6871 201.814H59.6391V202.854C60.0018 202.416 60.4338 202.096 60.9351 201.894C61.4365 201.68 61.9645 201.574 62.5191 201.574C63.5538 201.574 64.3271 201.856 64.8391 202.422C65.3511 202.976 65.6071 203.718 65.6071 204.646V209.494H63.5911V204.838C63.5911 203.718 63.0685 203.158 62.0231 203.158C61.5645 203.158 61.1325 203.27 60.7271 203.494C60.3218 203.707 59.9805 204.032 59.7031 204.47V209.494H57.6871V201.814ZM70.0608 209.734C69.2181 209.734 68.5781 209.499 68.1408 209.03C67.7034 208.56 67.4848 207.899 67.4848 207.046V203.35H66.3328V201.814H67.4848V199.51H69.5008V201.814H71.3408V203.35H69.5008V206.79C69.5008 207.28 69.5914 207.632 69.7728 207.846C69.9541 208.048 70.2848 208.15 70.7648 208.15C71.0954 208.15 71.4208 208.075 71.7408 207.926V209.462C71.2821 209.643 70.7221 209.734 70.0608 209.734ZM76.0176 209.734C75.239 209.734 74.5403 209.568 73.9216 209.238C73.3136 208.896 72.8336 208.422 72.4816 207.814C72.1403 207.195 71.9696 206.48 71.9696 205.67C71.9696 204.87 72.1403 204.16 72.4816 203.542C72.8336 202.923 73.3136 202.443 73.9216 202.102C74.5403 201.75 75.239 201.574 76.0176 201.574C77.2763 201.574 78.2683 201.904 78.9936 202.566V197.67H81.0096V209.494H79.0576V208.598C78.6203 209.003 78.167 209.296 77.6976 209.478C77.2283 209.648 76.6683 209.734 76.0176 209.734ZM76.5136 208.15C77.0896 208.15 77.6016 207.995 78.0496 207.686C78.4976 207.376 78.8123 206.96 78.9936 206.438V204.886C78.823 204.363 78.5083 203.947 78.0496 203.638C77.6016 203.318 77.0896 203.158 76.5136 203.158C75.7883 203.158 75.191 203.392 74.7216 203.862C74.2523 204.331 74.0176 204.934 74.0176 205.67C74.0176 206.406 74.2523 207.003 74.7216 207.462C75.191 207.92 75.7883 208.15 76.5136 208.15ZM86.7703 209.734C85.3409 209.734 84.2103 209.376 83.3783 208.662C82.5463 207.947 82.1303 206.95 82.1303 205.67C82.1303 204.411 82.4983 203.414 83.2343 202.678C83.9703 201.942 85.0209 201.574 86.3863 201.574C87.2823 201.574 88.0449 201.744 88.6743 202.086C89.3143 202.427 89.7943 202.896 90.1143 203.494C90.4343 204.08 90.5943 204.752 90.5943 205.51V206.438H84.0503C84.1889 207.579 85.1809 208.15 87.0263 208.15C87.5169 208.15 88.0183 208.107 88.5303 208.022C89.0423 207.936 89.4903 207.819 89.8743 207.67V209.222C89.5116 209.371 89.0423 209.494 88.4663 209.59C87.9009 209.686 87.3356 209.734 86.7703 209.734ZM88.6903 205.062C88.6689 204.454 88.4503 203.984 88.0343 203.654C87.6289 203.323 87.0689 203.158 86.3543 203.158C85.6503 203.158 85.0956 203.328 84.6903 203.67C84.2849 204.011 84.0716 204.475 84.0503 205.062H88.6903ZM91.7203 197.67H93.7363V205.19L96.7923 201.814H99.1603L95.7363 205.574L99.5443 209.494H97.1763L93.7363 205.942V209.494H91.7203V197.67ZM105.948 201.814H107.836V202.822C108.177 202.416 108.577 202.107 109.036 201.894C109.494 201.68 109.958 201.574 110.428 201.574C111.025 201.574 111.505 201.675 111.868 201.878C112.23 202.07 112.502 202.363 112.684 202.758C113.025 202.374 113.436 202.08 113.916 201.878C114.406 201.675 114.892 201.574 115.372 201.574C116.332 201.574 117.02 201.814 117.436 202.294C117.852 202.774 118.06 203.478 118.06 204.406V209.494H116.124V204.678C116.124 204.134 116.012 203.744 115.788 203.51C115.574 203.275 115.228 203.158 114.748 203.158C114.406 203.158 114.092 203.227 113.804 203.366C113.526 203.494 113.27 203.718 113.036 204.038C113.057 204.379 113.068 204.656 113.068 204.87V209.494H111.116V204.646C111.116 204.091 111.025 203.707 110.844 203.494C110.662 203.27 110.332 203.158 109.852 203.158C109.126 203.158 108.476 203.568 107.9 204.39V209.494H105.948V201.814ZM123.741 209.734C122.312 209.734 121.181 209.376 120.349 208.662C119.517 207.947 119.101 206.95 119.101 205.67C119.101 204.411 119.469 203.414 120.205 202.678C120.941 201.942 121.992 201.574 123.357 201.574C124.253 201.574 125.016 201.744 125.645 202.086C126.285 202.427 126.765 202.896 127.085 203.494C127.405 204.08 127.565 204.752 127.565 205.51V206.438H121.021C121.16 207.579 122.152 208.15 123.997 208.15C124.488 208.15 124.989 208.107 125.501 208.022C126.013 207.936 126.461 207.819 126.845 207.67V209.222C126.482 209.371 126.013 209.494 125.437 209.59C124.872 209.686 124.306 209.734 123.741 209.734ZM125.661 205.062C125.64 204.454 125.421 203.984 125.005 203.654C124.6 203.323 124.04 203.158 123.325 203.158C122.621 203.158 122.066 203.328 121.661 203.67C121.256 204.011 121.042 204.475 121.021 205.062H125.661ZM133.011 209.734C131.582 209.734 130.451 209.376 129.619 208.662C128.787 207.947 128.371 206.95 128.371 205.67C128.371 204.411 128.739 203.414 129.475 202.678C130.211 201.942 131.262 201.574 132.627 201.574C133.523 201.574 134.286 201.744 134.915 202.086C135.555 202.427 136.035 202.896 136.355 203.494C136.675 204.08 136.835 204.752 136.835 205.51V206.438H130.291C130.43 207.579 131.422 208.15 133.267 208.15C133.758 208.15 134.259 208.107 134.771 208.022C135.283 207.936 135.731 207.819 136.115 207.67V209.222C135.752 209.371 135.283 209.494 134.707 209.59C134.142 209.686 133.576 209.734 133.011 209.734ZM134.931 205.062C134.91 204.454 134.691 203.984 134.275 203.654C133.87 203.323 133.31 203.158 132.595 203.158C131.891 203.158 131.336 203.328 130.931 203.67C130.526 204.011 130.312 204.475 130.291 205.062H134.931ZM137.961 201.814H139.913V203.046C140.222 202.63 140.66 202.32 141.225 202.118C141.801 201.915 142.457 201.814 143.193 201.814V203.35C142.414 203.35 141.737 203.472 141.161 203.718C140.596 203.952 140.201 204.326 139.977 204.838V209.494H137.961V201.814Z" fill="white"/>
</svg>
